<svg id="Layer_1" xmlns="http://www.w3.org/2000/svg" viewBox="0 0 271.5 243.1"><style>.st0{opacity:0.8;fill:#FFFFFF;} .st1{fill:#FFFFFF;} .st2{opacity:0.6;fill:#FFFFFF;} .st3{opacity:0.4;fill:#FFFFFF;} .st4{fill:#FFFFFF;stroke:#FFFFFF;stroke-width:2.8799;stroke-linecap:round;stroke-miterlimit:10;}</style><path class="st0" d="M147.3 108.3l6 6 6 6h-24l6-6z"/><path class="st1" d="M195.4 84.2l-6-6-6-6h24l-6 6zm0 0l-6 6-6 6v-24l6 6z"/><path class="st2" d="M171.4 108.3l-6.1-6.1-6-6h24.1l-6 6z"/><path class="st3" d="M171.4 84.2l6-6 6-6v24l-6-6z"/><path class="st3" d="M171.4 84.2l6 6 6 6h-24.1l6-6z"/><path class="st2" d="M171.4 108.3l-6.1 6-6 6V96.2l6 6z"/><path class="st0" d="M147.3 108.3l6-6.1 6-6v24.1l-6-6z"/><path class="st1" d="M147.3 132.3l-6-6-6-6h24l-6 6zm0 0l-6 6-6 6v-24l6 6zm0-72.2l6 6.1 6 6h-24l6-6zm24.1 0l-6.1-6-6-6h24.1l-6 6z"/><path class="st1" d="M171.4 60.1l-6.1 6.1-6 6V48.1l6 6zm-24.1 0l6-6 6-6v24.1l-6-6zm0 24.1l-6-6-6-6h24l-6 6zm0 0l-6 6-6 6v-24l6 6zm-24.1 48.1l-6-6-6-6h24.1l-6 6z"/><path class="st1" d="M123.2 132.3l6.1-6 6-6v24l-6-6zm0-24l-6 6-6 6V96.2l6 6zm0 0l6.1 6 6 6h-24.1l6-6zm-24 0l6-6.1 6-6v24.1l-6-6zm0-24.1l-6 6-6 6v-24l6 6zm0 0l6 6 6 6h-24l6-6zm-24.1 0l6-6 6.1-6v24l-6.1-6zm48.1 0l-6-6-6-6h24.1l-6 6z"/><path class="st1" d="M123.2 84.2l6.1-6 6-6v24l-6-6z"/><path class="st0" d="M123.2 60.1l-6 6.1-6 6V48.1l6 6z"/><path class="st0" d="M123.2 60.1l6.1 6.1 6 6h-24.1l6-6z"/><path class="st2" d="M99.2 60.1l6-6 6-6v24.1l-6-6z"/><path class="st3" d="M99.2 36.1l-6 6-6 6v-24l6 6zm0 0l6 6 6 6h-24l6-6z"/><path class="st1" d="M75.1 36.1l6-6 6.1-6v24l-6.1-6zm24.1 72.2l-6-6.1-6-6h24l-6 6zM75.1 84.2l-6-6-6-6h24.1l-6.1 6zm48.1-48.1l-6-6-6-6h24.1l-6 6z"/><path class="st1" d="M123.2 36.1l6.1-6 6-6v24l-6-6zm0-24.1l-6 6-6 6.1V0l6 6z"/><path class="st1" d="M123.2 12l6.1 6 6 6.1h-24.1l6-6.1zm-24 0l6-6 6-6v24.1l-6-6.1z"/><path class="st1" d="M99.2 12l-6-6-6-6h24l-6 6z"/><path class="st2" d="M99.2 60.1l-6-6-6-6h24l-6 6z"/><path class="st1" d="M75.1 36.1l-6-6-6-6h24.1l-6.1 6zM3.6 174c0-1.2.6-1.9 1.8-1.9h14.4c1.2 0 1.9.7 1.9 1.9v1.2c0 1.2-.7 1.8-1.9 1.8H9.3v8.9h8.6c1.2 0 1.9.6 1.9 1.8v1.2c0 1.2-.7 1.9-1.9 1.9H9.3v10.8c0 1.2-.6 1.9-1.8 1.9h-2c-1.2 0-1.8-.6-1.8-1.9V174zm22.6 0c0-1.2.6-1.9 1.8-1.9h8.5c3.1 0 4.6.3 6 .8 3.2 1.3 5.3 4.3 5.3 8.6 0 3.7-1.9 7.2-5.2 8.6v.1s.4.5 1 1.6l5.2 9.5c.8 1.3.2 2.2-1.3 2.2h-2.4c-1 0-1.7-.4-2.2-1.3l-5.5-10.4h-5.5v9.9c0 1.2-.6 1.9-1.8 1.9h-2c-1.2 0-1.8-.6-1.8-1.9V174zM37 186.9c3 0 4.9-1.9 4.9-5 0-2-.8-3.6-2.5-4.3-.8-.4-1.7-.5-3.4-.5h-4.2v9.8H37zm31.2-15.3c9.5 0 16.2 7 16.2 16 0 9.2-6.7 16.4-16.2 16.4S52 196.8 52 187.6c0-9 6.7-16 16.2-16zm0 27.2c6 0 10.3-4.9 10.3-11.2 0-6.1-4.3-10.8-10.3-10.8-6 0-10.3 4.7-10.3 10.8 0 6.4 4.3 11.2 10.3 11.2zM89.8 174c0-1.2.6-1.9 1.8-1.9H94c1.1 0 1.7.4 2.2 1.2l11.1 16.9c1.2 1.9 2.6 4.9 2.6 4.9h.1s-.3-3-.3-4.9V174c0-1.2.7-1.9 1.9-1.9h2c1.2 0 1.9.7 1.9 1.9v27.7c0 1.2-.7 1.9-1.9 1.9h-2.4c-1 0-1.7-.4-2.2-1.2l-11.2-16.8c-1.1-1.9-2.6-4.9-2.6-4.9h-.1s.3 3 .3 4.9v16.2c0 1.2-.6 1.9-1.8 1.9h-2c-1.2 0-1.8-.6-1.8-1.9V174zm39.8 3.1h-8.4c-1.2 0-1.9-.6-1.9-1.8V174c0-1.2.6-1.9 1.9-1.9h22.5c1.2 0 1.8.7 1.8 1.9v1.2c0 1.2-.6 1.8-1.8 1.8h-8.4v24.6c0 1.2-.6 1.9-1.9 1.9h-2c-1.2 0-1.8-.6-1.8-1.9v-24.5zm30.8-3.1c0-1.2.6-1.9 1.8-1.9h15.1c1.2 0 1.9.7 1.9 1.9v1.2c0 1.2-.7 1.8-1.9 1.8H166v8.2h8.7c1.2 0 1.9.6 1.9 1.8v1.2c0 1.2-.7 1.9-1.9 1.9H166v8.4h12c1.2 0 1.9.6 1.9 1.8v1.2c0 1.2-.7 1.9-1.9 1.9h-15.8c-1.2 0-1.8-.6-1.8-1.9V174zm24.6 0c0-1.2.6-1.9 1.8-1.9h8.9c9.7 0 16 5.7 16 15.6 0 9.9-6.3 15.7-16 15.7h-8.9c-1.2 0-1.8-.6-1.8-1.9V174zm10.4 24.6c6.4 0 10.4-3.8 10.4-10.8 0-7-4.2-10.7-10.4-10.7h-4.7v21.6h4.7zm36.1-27c5.2 0 8.9 1.9 10.2 2.9 1 .8 1.1 1.5.4 2.6l-.8 1.2c-.7 1-1.5 1.1-2.6.5-1.4-.8-3.6-1.9-7-1.9-6.8 0-10.6 4.9-10.6 10.9 0 6.6 4.6 11.1 10.5 11.1 5.3 0 8-3.4 8-3.4V192h-3c-1.2 0-1.9-.7-1.9-1.9v-1.2c0-1.2.7-1.9 1.9-1.9h6.3c1.2 0 1.8.6 1.8 1.9v12.8c0 1.2-.6 1.9-1.8 1.9h-1.1c-1.2 0-1.8-.6-1.8-1.5v-1.6h-.1s-3.1 3.5-9.2 3.5c-8.3 0-15.4-6.5-15.4-16.1 0-9.3 6.9-16.3 16.2-16.3zm19 2.4c0-1.2.6-1.9 1.8-1.9h15.1c1.2 0 1.9.7 1.9 1.9v1.2c0 1.2-.7 1.8-1.9 1.8h-11.3v8.2h8.7c1.2 0 1.9.6 1.9 1.8v1.2c0 1.2-.7 1.9-1.9 1.9h-8.7v8.4h12c1.2 0 1.9.6 1.9 1.8v1.2c0 1.2-.7 1.9-1.9 1.9h-15.8c-1.2 0-1.8-.6-1.8-1.9V174zM98.2 220.5c3.4 0 4.5 2.2 4.5 2.2h.1s-.1-.4-.1-.9V216c0-.8.4-1.3 1.3-1.3h1.3c.8 0 1.3.5 1.3 1.3v19.1c0 .9-.4 1.3-1.3 1.3h-1.1c-.8 0-1.3-.4-1.3-1.2v-.6c0-.3.1-.5.1-.5s-1.3 2.7-4.9 2.7c-4.2 0-6.9-3.3-6.9-8.2 0-4.9 2.9-8.1 7-8.1zm.8 13c2 0 3.9-1.5 3.9-4.9 0-2.4-1.3-4.8-3.9-4.8-2.1 0-3.9 1.7-3.9 4.8 0 3 1.6 4.9 3.9 4.9zm11.5-16.6v-.9c0-.8.4-1.3 1.3-1.3h1.3c.8 0 1.3.5 1.3 1.3v.9c0 .8-.5 1.3-1.3 1.3h-1.3c-.9 0-1.3-.4-1.3-1.3zm0 5.2c0-.8.4-1.3 1.3-1.3h1.3c.8 0 1.3.5 1.3 1.3v13c0 .9-.4 1.3-1.3 1.3h-1.3c-.8 0-1.3-.4-1.3-1.3v-13zm10.6 16.9c.7.3 1.7.6 3.1.6 2.4 0 4.4-1 4.4-3.8v-1.2c0-.4.1-.8.1-.8h-.1c-.9 1.5-2.2 2.3-4.3 2.3-4.5 0-7.1-3.6-7.1-7.9 0-4.2 2.4-7.7 7-7.7 3.6 0 4.6 2.4 4.6 2.4h.1v-1c0-.6.4-1 1.3-1h1c.8 0 1.3.5 1.3 1.3v13.3c0 5.3-4.2 7.4-8.1 7.4-1.7 0-3.5-.4-4.5-.8-.8-.3-1-.9-.7-1.6l.2-.7c.4-.9.9-1.1 1.7-.8zm7.6-10.7c0-3.6-1.8-4.5-3.8-4.5-2.4 0-3.7 1.7-3.7 4.3 0 2.8 1.4 4.8 3.9 4.8 1.9 0 3.6-1.1 3.6-4.6zm7.7-11.4v-.9c0-.8.4-1.3 1.3-1.3h1.3c.8 0 1.3.5 1.3 1.3v.9c0 .8-.5 1.3-1.3 1.3h-1.3c-.9 0-1.3-.4-1.3-1.3zm0 5.2c0-.8.4-1.3 1.3-1.3h1.3c.8 0 1.3.5 1.3 1.3v13c0 .9-.4 1.3-1.3 1.3h-1.3c-.8 0-1.3-.4-1.3-1.3v-13zm8.5 2.1h-.8c-.8 0-1.3-.4-1.3-1.3v-.5c0-.8.4-1.3 1.3-1.3h.9v-3.2c0-.8.5-1.3 1.3-1.3h1.2c.8 0 1.3.5 1.3 1.3v3.2h2.3c.8 0 1.3.5 1.3 1.3v.5c0 .9-.5 1.3-1.3 1.3h-2.3v6c0 2.3 1.4 2.8 2.5 2.9.9.1 1.3.4 1.3 1.3v.9c0 .9-.5 1.3-1.6 1.3-2.8 0-6.1-1.5-6.1-5.7v-6.7zm18.2 2.6h.6v-.4c0-2-1.3-2.7-2.9-2.7-1.3 0-2.5.5-3.2.9-.8.3-1.3.2-1.7-.5l-.3-.6c-.4-.7-.2-1.3.5-1.7 1-.5 2.8-1.3 5.1-1.3 4 0 6.4 2.3 6.4 6.2v8.5c0 .9-.4 1.3-1.3 1.3h-1c-.8 0-1.3-.4-1.3-1.3v-.6c0-.4.1-.7.1-.7h-.1s-1.5 2.9-4.9 2.9c-2.8 0-5.2-1.8-5.2-4.7.1-4.5 5.7-5.3 9.2-5.3zm-2.9 7c2.2 0 3.6-2.2 3.6-4.1v-.6h-.6c-2 0-5.3.3-5.3 2.6-.1 1.1.7 2.1 2.3 2.1zm11-17.8c0-.8.4-1.3 1.3-1.3h1.3c.8 0 1.3.5 1.3 1.3v15.2c0 1.5.6 1.8 1.2 1.9.5.1.9.4.9 1.1v1c0 .8-.4 1.3-1.3 1.3-2.1 0-4.7-.5-4.7-5V216z"/><path class="st4" d="M193.6 227.2h18m-154.7 0h18"/></svg>