<?xml version="1.0" encoding="UTF-8"?>
<svg id="Layer_1" data-name="Layer 1" xmlns="http://www.w3.org/2000/svg" viewBox="0 0 243.1 243.1">
  <defs>
    <style>
      .cls-1 {
        opacity: .6;
      }

      .cls-1, .cls-2, .cls-3 {
        isolation: isolate;
      }

      .cls-1, .cls-2, .cls-3, .cls-4 {
        fill: #fff;
        stroke-width: 0px;
      }

      .cls-2 {
        opacity: .8;
      }

      .cls-5 {
        fill: #a31f1f;
        stroke: #fff;
        stroke-linecap: round;
        stroke-miterlimit: 10;
        stroke-width: 2.88px;
      }

      .cls-3 {
        opacity: .4;
      }
    </style>
  </defs>
  <path class="cls-2" d="m141.85,182.45l10.11,10.11,10.11,10.11h-40.43l10.11-10.11,10.11-10.11Z"/>
  <path class="cls-4" d="m222.88,141.85l-10.11-10.11-10.11-10.11h40.43l-10.11,10.11-10.11,10.11Zm0,0l-10.11,10.11-10.11,10.11v-40.43l10.11,10.11,10.11,10.11Z"/>
  <path class="cls-1" d="m182.45,182.45l-10.28-10.28-10.11-10.11h40.6l-10.11,10.11-10.11,10.28Z"/>
  <path class="cls-3" d="m182.45,141.85l10.11-10.11,10.11-10.11v40.43l-10.11-10.11-10.11-10.11Z"/>
  <path class="cls-3" d="m182.45,141.85l10.11,10.11,10.11,10.11h-40.6l10.11-10.11,10.28-10.11Z"/>
  <path class="cls-1" d="m182.45,182.45l-10.28,10.11-10.11,10.11v-40.6l10.11,10.11,10.28,10.28Z"/>
  <path class="cls-2" d="m141.85,182.45l10.11-10.28,10.11-10.11v40.6l-10.11-10.11-10.11-10.11Z"/>
  <path class="cls-4" d="m141.85,222.88l-10.11-10.11-10.11-10.11h40.43l-10.11,10.11-10.11,10.11Zm0,0l-10.11,10.11-10.11,10.11v-40.43l10.11,10.11,10.11,10.11Zm0-121.63l10.11,10.28,10.11,10.11h-40.43l10.11-10.11,10.11-10.28Zm40.6,0l-10.28-10.11-10.11-10.11h40.6l-10.11,10.11-10.11,10.11Z"/>
  <path class="cls-4" d="m182.45,101.25l-10.28,10.28-10.11,10.11v-40.6l10.11,10.11,10.28,10.11Zm-40.6,0l10.11-10.11,10.11-10.11v40.6l-10.11-10.11-10.11-10.28Zm0,40.6l-10.11-10.11-10.11-10.11h40.43l-10.11,10.11-10.11,10.11Zm0,0l-10.11,10.11-10.11,10.11v-40.43l10.11,10.11,10.11,10.11Zm-40.6,81.03l-10.11-10.11-10.11-10.11h40.6l-10.11,10.11-10.28,10.11Z"/>
  <path class="cls-4" d="m101.25,222.88l10.28-10.11,10.11-10.11v40.43l-10.11-10.11-10.28-10.11Zm0-40.43l-10.11,10.11-10.11,10.11v-40.6l10.11,10.11,10.11,10.28Zm0,0l10.28,10.11,10.11,10.11h-40.6l10.11-10.11,10.11-10.11Zm-40.43,0l10.11-10.28,10.11-10.11v40.6l-10.11-10.11-10.11-10.11Zm0-40.6l-10.11,10.11-10.11,10.11v-40.43l10.11,10.11,10.11,10.11Zm0,0l10.11,10.11,10.11,10.11h-40.43l10.11-10.11,10.11-10.11Zm-40.6,0l10.11-10.11,10.28-10.11v40.43l-10.28-10.11-10.11-10.11Zm81.03,0l-10.11-10.11-10.11-10.11h40.6l-10.11,10.11-10.28,10.11Z"/>
  <path class="cls-4" d="m101.25,141.85l10.28-10.11,10.11-10.11v40.43l-10.11-10.11-10.28-10.11Z"/>
  <path class="cls-2" d="m101.25,101.25l-10.11,10.28-10.11,10.11v-40.6l10.11,10.11,10.11,10.11Z"/>
  <path class="cls-2" d="m101.25,101.25l10.28,10.28,10.11,10.11h-40.6l10.11-10.11,10.11-10.28Z"/>
  <path class="cls-1" d="m60.82,101.25l10.11-10.11,10.11-10.11v40.6l-10.11-10.11-10.11-10.28Z"/>
  <path class="cls-3" d="m60.82,60.82l-10.11,10.11-10.11,10.11v-40.43l10.11,10.11,10.11,10.11Zm0,0l10.11,10.11,10.11,10.11h-40.43l10.11-10.11,10.11-10.11Z"/>
  <path class="cls-4" d="m20.22,60.82l10.11-10.11,10.28-10.11v40.43l-10.28-10.11-10.11-10.11Zm40.6,121.63l-10.11-10.28-10.11-10.11h40.43l-10.11,10.11-10.11,10.28Zm-40.6-40.6l-10.11-10.11L0,121.63h40.6l-10.28,10.11-10.11,10.11ZM101.25,60.82l-10.11-10.11-10.11-10.11h40.6l-10.11,10.11-10.28,10.11Z"/>
  <path class="cls-4" d="m101.25,60.82l10.28-10.11,10.11-10.11v40.43l-10.11-10.11-10.28-10.11Zm0-40.6l-10.11,10.11-10.11,10.28V0l10.11,10.11,10.11,10.11Z"/>
  <path class="cls-4" d="m101.25,20.22l10.28,10.11,10.11,10.28h-40.6l10.11-10.28,10.11-10.11Zm-40.43,0l10.11-10.11L81.03,0v40.6l-10.11-10.28-10.11-10.11Z"/>
  <path class="cls-4" d="m60.82,20.22l-10.11-10.11L40.6,0h40.43l-10.11,10.11-10.11,10.11Z"/>
  <path class="cls-1" d="m60.82,101.25l-10.11-10.11-10.11-10.11h40.43l-10.11,10.11-10.11,10.11Z"/>
  <path class="cls-4" d="m20.22,60.82l-10.11-10.11L0,40.6h40.6l-10.28,10.11-10.11,10.11Z"/>
  <path class="cls-5" d="m176.87,227.2h18m-154.7,0h18"/>
</svg>